<mxfile host="app.diagrams.net" modified="2021-01-07T09:34:09.013Z" agent="5.0 (Macintosh; Intel Mac OS X 10_15_7) AppleWebKit/537.36 (KHTML, like Gecko) Chrome/87.0.4280.88 Safari/537.36" etag="vjiBizGMeiCU_uWgzayZ" version="14.1.2" type="github">
  <diagram id="SFZxk6p9zxrb4j1SlQ5u" name="Page-1">
    <mxGraphModel dx="946" dy="623" grid="1" gridSize="10" guides="1" tooltips="1" connect="1" arrows="1" fold="1" page="1" pageScale="1" pageWidth="827" pageHeight="1169" math="0" shadow="0">
      <root>
        <mxCell id="0" />
        <mxCell id="1" parent="0" />
        <mxCell id="mD7dPjdE5654DXhsYJyF-1" value="" style="shape=cylinder3;whiteSpace=wrap;html=1;boundedLbl=1;backgroundOutline=1;size=15;direction=north;" vertex="1" parent="1">
          <mxGeometry x="160" y="180" width="410" height="50" as="geometry" />
        </mxCell>
        <mxCell id="mD7dPjdE5654DXhsYJyF-2" value="&lt;font style=&quot;font-size: 20px&quot;&gt;FIFO&lt;/font&gt;" style="text;html=1;fillColor=none;align=center;verticalAlign=middle;whiteSpace=wrap;rounded=0;strokeColor=#000000;strokeWidth=2;" vertex="1" parent="1">
          <mxGeometry x="280" y="80" width="160" height="30" as="geometry" />
        </mxCell>
        <mxCell id="mD7dPjdE5654DXhsYJyF-18" style="edgeStyle=orthogonalEdgeStyle;rounded=0;orthogonalLoop=1;jettySize=auto;html=1;exitX=1;exitY=0.5;exitDx=0;exitDy=0;strokeWidth=2;" edge="1" parent="1" source="mD7dPjdE5654DXhsYJyF-10" target="mD7dPjdE5654DXhsYJyF-1">
          <mxGeometry relative="1" as="geometry" />
        </mxCell>
        <mxCell id="mD7dPjdE5654DXhsYJyF-10" value="value" style="rounded=1;whiteSpace=wrap;html=1;strokeColor=#000000;strokeWidth=2;" vertex="1" parent="1">
          <mxGeometry x="40" y="190" width="40" height="30" as="geometry" />
        </mxCell>
        <mxCell id="mD7dPjdE5654DXhsYJyF-19" style="edgeStyle=orthogonalEdgeStyle;rounded=0;orthogonalLoop=1;jettySize=auto;html=1;exitX=1;exitY=0.5;exitDx=0;exitDy=0;strokeWidth=2;" edge="1" parent="1" source="mD7dPjdE5654DXhsYJyF-11">
          <mxGeometry relative="1" as="geometry">
            <mxPoint x="680" y="205" as="targetPoint" />
          </mxGeometry>
        </mxCell>
        <mxCell id="mD7dPjdE5654DXhsYJyF-11" value="value" style="rounded=1;whiteSpace=wrap;html=1;strokeColor=#000000;strokeWidth=2;" vertex="1" parent="1">
          <mxGeometry x="520" y="190" width="40" height="30" as="geometry" />
        </mxCell>
        <mxCell id="mD7dPjdE5654DXhsYJyF-12" value="value" style="rounded=1;whiteSpace=wrap;html=1;strokeColor=#000000;strokeWidth=2;" vertex="1" parent="1">
          <mxGeometry x="460" y="190" width="40" height="30" as="geometry" />
        </mxCell>
        <mxCell id="mD7dPjdE5654DXhsYJyF-13" value="value" style="rounded=1;whiteSpace=wrap;html=1;strokeColor=#000000;strokeWidth=2;" vertex="1" parent="1">
          <mxGeometry x="393.5" y="190" width="40" height="30" as="geometry" />
        </mxCell>
        <mxCell id="mD7dPjdE5654DXhsYJyF-14" value="value" style="rounded=1;whiteSpace=wrap;html=1;strokeColor=#000000;strokeWidth=2;" vertex="1" parent="1">
          <mxGeometry x="330" y="190" width="40" height="30" as="geometry" />
        </mxCell>
        <mxCell id="mD7dPjdE5654DXhsYJyF-15" value="value" style="rounded=1;whiteSpace=wrap;html=1;strokeColor=#000000;strokeWidth=2;" vertex="1" parent="1">
          <mxGeometry x="270" y="190" width="40" height="30" as="geometry" />
        </mxCell>
        <mxCell id="mD7dPjdE5654DXhsYJyF-16" value="value" style="rounded=1;whiteSpace=wrap;html=1;strokeColor=#000000;strokeWidth=2;" vertex="1" parent="1">
          <mxGeometry x="210" y="190" width="40" height="30" as="geometry" />
        </mxCell>
        <mxCell id="mD7dPjdE5654DXhsYJyF-20" value="&lt;font style=&quot;font-size: 16px&quot;&gt;Insert&lt;/font&gt;" style="text;html=1;fillColor=none;align=center;verticalAlign=middle;whiteSpace=wrap;rounded=0;strokeColor=#000000;dashed=1;" vertex="1" parent="1">
          <mxGeometry x="90" y="170" width="50" height="30" as="geometry" />
        </mxCell>
        <mxCell id="mD7dPjdE5654DXhsYJyF-22" value="&lt;font style=&quot;font-size: 16px&quot;&gt;Delete&lt;/font&gt;" style="text;html=1;fillColor=none;align=center;verticalAlign=middle;whiteSpace=wrap;rounded=0;strokeColor=#000000;dashed=1;" vertex="1" parent="1">
          <mxGeometry x="590" y="170" width="50" height="30" as="geometry" />
        </mxCell>
        <mxCell id="mD7dPjdE5654DXhsYJyF-28" style="edgeStyle=orthogonalEdgeStyle;rounded=0;orthogonalLoop=1;jettySize=auto;html=1;exitX=0.5;exitY=0;exitDx=0;exitDy=0;entryX=0.145;entryY=0;entryDx=0;entryDy=4.35;entryPerimeter=0;strokeWidth=2;" edge="1" parent="1" source="mD7dPjdE5654DXhsYJyF-25" target="mD7dPjdE5654DXhsYJyF-1">
          <mxGeometry relative="1" as="geometry" />
        </mxCell>
        <mxCell id="mD7dPjdE5654DXhsYJyF-25" value="&lt;font style=&quot;font-size: 16px&quot;&gt;Head&lt;/font&gt;" style="text;html=1;fillColor=none;align=center;verticalAlign=middle;whiteSpace=wrap;rounded=0;strokeColor=#000000;" vertex="1" parent="1">
          <mxGeometry x="150" y="260" width="60" height="30" as="geometry" />
        </mxCell>
        <mxCell id="mD7dPjdE5654DXhsYJyF-29" style="edgeStyle=orthogonalEdgeStyle;rounded=0;orthogonalLoop=1;jettySize=auto;html=1;exitX=0.5;exitY=0;exitDx=0;exitDy=0;entryX=1;entryY=1;entryDx=0;entryDy=0;strokeWidth=2;" edge="1" parent="1" source="mD7dPjdE5654DXhsYJyF-26" target="mD7dPjdE5654DXhsYJyF-11">
          <mxGeometry relative="1" as="geometry" />
        </mxCell>
        <mxCell id="mD7dPjdE5654DXhsYJyF-26" value="&lt;font style=&quot;font-size: 16px&quot;&gt;Tail&lt;/font&gt;" style="text;html=1;fillColor=none;align=center;verticalAlign=middle;whiteSpace=wrap;rounded=0;strokeColor=#000000;" vertex="1" parent="1">
          <mxGeometry x="510" y="260" width="60" height="30" as="geometry" />
        </mxCell>
      </root>
    </mxGraphModel>
  </diagram>
</mxfile>
